# xmcd
#
# Track frame offsets: 
#        150
#        23173
#        41110
#        63413
#        77016
#        105106
#        123746
#        141291
#        166279
#        189066
#        213624
#        230752
#        246928
#        271148
#        284646
#
# Disc length: 4162 seconds
#
# Revision: 5
# Processed by: cddbd v1.4PL0 Copyright (c) Steve Scherf et al.
# Submitted via: ExactAudioCopy v0.90b4
#
DISCID=d810400f
DTITLE=Hot Tuna - Live at New Orleans House
DYEAR=1996
DGENRE=Blues - Jam
TTITLE0=Hesitation Blues
TTITLE1=How Long Blues
TTITLE2=Uncle Sam Blues
TTITLE3=Don't You Leave Me Here
TTITLE4=Death Don't Have No Mercy
TTITLE5=Know You Rider
TTITLE6=Oh Lord, Search My Heart
TTITLE7=Winin' Boy Blues
TTITLE8=New Song (For The Morning)
TTITLE9=Mann's Fate
TTITLE10=Keep Your Lamps Trimmed And Burning
TTITLE11=Candy Man
TTITLE12=True Religion
TTITLE13=Belly Shadow
TTITLE14=Come Back Baby
EXTD=
EXTT0=
EXTT1=
EXTT2=
EXTT3=
EXTT4=
EXTT5=
EXTT6=
EXTT7=
EXTT8=
EXTT9=
EXTT10=
EXTT11=
EXTT12=
EXTT13=
EXTT14=
PLAYORDER=
